<svg xmlns="http://www.w3.org/2000/svg" viewBox="0 0 300 240" role="img" aria-labelledby="mugTitle">
  <title id="mugTitle">Stoneware batch mug in ash glaze</title>
  <defs>
    <linearGradient id="mugBg" x1="0" y1="0" x2="0" y2="1">
      <stop offset="0" stop-color="#E4DCC8"/>
      <stop offset="1" stop-color="#D2C7AC"/>
    </linearGradient>
    <linearGradient id="mugBody" x1="0" y1="0" x2="1" y2="1">
      <stop offset="0" stop-color="#8E9B7E"/>
      <stop offset=".55" stop-color="#5F6E54"/>
      <stop offset="1" stop-color="#4A5640"/>
    </linearGradient>
    <linearGradient id="mugShine" x1="0" y1="0" x2="0" y2="1">
      <stop offset="0" stop-color="#FFFFFF" stop-opacity=".45"/>
      <stop offset="1" stop-color="#FFFFFF" stop-opacity="0"/>
    </linearGradient>
  </defs>
  <rect width="300" height="240" fill="url(#mugBg)"/>
  <ellipse cx="150" cy="205" rx="88" ry="12" fill="#4A3A16" opacity=".12"/>
  <path d="M96 70h96l-7 108a20 20 0 0 1-20 18h-42a20 20 0 0 1-20-18L96 70Z" fill="url(#mugBody)"/>
  <path d="M188 96h20a24 24 0 0 1 0 48h-16" fill="none" stroke="#4A5640" stroke-width="10"/>
  <path d="M104 78h20a4 4 0 0 1 0 8h-18Z" fill="url(#mugShine)"/>
  <rect x="100" y="70" width="100" height="10" rx="4" fill="#EAE4D6" opacity=".55"/>
  <path d="M110 96c6 10 -4 18 2 30M126 92c6 12 -6 20 2 34M142 90c6 12 -6 20 2 36" stroke="#EAE4D6" stroke-width="3" stroke-linecap="round" fill="none" opacity=".35"/>
</svg>
